<svg xmlns="http://www.w3.org/2000/svg" version="1.1" xmlns:xlink="http://www.w3.org/1999/xlink" xmlns:svgjs="http://svgjs.dev/svgjs" width="1000" height="1000" viewBox="0 0 1000 1000"><rect width="1000" height="1000" fill="#000000"></rect><g transform="matrix(0.7,0,0,0.7,149.57575757575756,282.1265587044535)"><svg viewBox="0 0 396 247" data-background-color="#ffffff" preserveAspectRatio="xMidYMid meet" height="623" width="1000" xmlns="http://www.w3.org/2000/svg" xmlns:xlink="http://www.w3.org/1999/xlink"><g id="tight-bounds" transform="matrix(1,0,0,1,0.2400000000000091,-0.09999999999999432)"><svg viewBox="0 0 395.52 247.2" height="247.2" width="395.52"><g><svg></svg></g><g><svg viewBox="0 0 395.52 247.2" height="247.2" width="395.52"><g transform="matrix(1,0,0,1,157.72359711452577,47.215199999999996)"><svg viewBox="0 0 80.07280577094846 152.7696" height="152.7696" width="80.07280577094846"><g><svg viewBox="0 0 80.07280577094846 152.7696" height="152.7696" width="80.07280577094846"><g><svg viewBox="0 0 108.39186443520002 206.79907009112904" height="152.7696" width="80.07280577094846"><g><svg viewBox="0 0 108.39186443520002 206.79907009112904" height="206.79907009112904" width="108.39186443520002"><g><svg viewBox="0 0 108.39186443520002 206.79907009112904" height="206.79907009112904" width="108.39186443520002"><g><svg viewBox="0 0 108.39186443520002 151.825483872" height="151.825483872" width="108.39186443520002"><g transform="matrix(1,0,0,1,0,0)"><svg width="108.39186443520002" viewBox="2.700000047683716 -39 28.19999885559082 39.5" height="151.825483872" data-palette-color="#77d4fc"><path d="M3.45 0L2.7-12.75 4.65-12.75Q5.35-8 8.45-5.28 11.55-2.55 16.1-2.55L16.1-2.55Q17.95-2.55 19.5-3 21.05-3.45 22.15-4.28 23.25-5.1 23.85-6.23 24.45-7.35 24.45-8.75L24.45-8.75Q24.45-9.95 24.08-10.83 23.7-11.7 22.65-12.53 21.6-13.35 19.78-14.2 17.95-15.05 15.05-16.15L15.05-16.15Q9.2-18.4 6.4-21.38 3.6-24.35 3.6-28.4L3.6-28.4Q3.6-30.75 4.5-32.7 5.4-34.65 7.03-36.05 8.65-37.45 10.93-38.23 13.2-39 15.95-39L15.95-39Q18.5-39 20.75-38.2 23-37.4 25.2-35.8L25.2-35.8 26.1-38.3 27.3-38.3 27.85-27.5 25.9-27.5Q24.7-31.6 22.15-33.77 19.6-35.95 16.25-35.95L16.25-35.95Q13.15-35.95 11.23-34.43 9.3-32.9 9.3-30.5L9.3-30.5Q9.3-29.45 9.65-28.63 10-27.8 10.95-27.05 11.9-26.3 13.55-25.53 15.2-24.75 17.8-23.8L17.8-23.8Q21.3-22.45 23.78-21.08 26.25-19.7 27.83-18.13 29.4-16.55 30.15-14.8 30.9-13.05 30.9-10.95L30.9-10.95Q30.9-8.4 29.8-6.3 28.7-4.2 26.73-2.7 24.75-1.2 22.03-0.35 19.3 0.5 16 0.5L16 0.5Q13 0.5 10.6-0.33 8.2-1.15 5.65-3L5.65-3 4.65 0 3.45 0Z" opacity="1" transform="matrix(1,0,0,1,0,0)" fill="#ffffff" class="undefined-text-0" data-fill-palette-color="primary" id="text-0"></path></svg></g></svg></g><g transform="matrix(1,0,0,1,0,187.66783680256628)"><svg viewBox="0 0 108.39186443520002 19.13123328856276" height="19.13123328856276" width="108.39186443520002"><g transform="matrix(1,0,0,1,0,0)"><svg width="108.39186443520002" viewBox="5.199999809265137 -34 195.72999572753906 34.54999923706055" height="19.13123328856276" data-palette-color="#a4a5a6"><path d="M23.8 0L5.2 0 5.2-30.88 23.8-30.88 23.8-28.4 8.1-28.4 8.1-16.85 22.9-16.85 22.9-14.38 8.1-14.38 8.1-2.53 23.8-2.53 23.8 0ZM54.05-13.03L40.67-13.03 40.67-15.55 54.05-15.55 54.05-13.03ZM78.52-28.4L67.52-28.4 67.52-30.88 91.19-30.88 91.19-28.4 80.12-28.4 80.77-29.08 80.77 0 77.87 0 77.87-29.08 78.52-28.4ZM98.29-29.98L98.29-29.98Q97.36-29.98 96.79-30.55 96.21-31.13 96.21-32L96.21-32Q96.21-32.85 96.79-33.36 97.36-33.88 98.29-33.88L98.29-33.88Q99.26-33.88 99.81-33.36 100.36-32.85 100.36-32L100.36-32Q100.36-31.13 99.81-30.55 99.26-29.98 98.29-29.98ZM99.74 0L96.84 0 96.84-23.75 99.74-23.75 99.74 0ZM118.86 0.55L118.86 0.55Q116.09 0.55 113.66-0.98 111.24-2.5 109.75-5.3 108.26-8.1 108.26-11.93L108.26-11.93Q108.26-15.8 109.75-18.56 111.24-21.33 113.66-22.8 116.09-24.28 118.86-24.28L118.86-24.28Q120.71-24.28 122.22-23.74 123.74-23.2 124.9-22.24 126.06-21.28 126.89-20.01 127.71-18.75 128.16-17.3L128.16-17.3 125.14-16.85Q124.41-19.15 122.76-20.45 121.11-21.75 118.81-21.75L118.81-21.75Q116.86-21.75 115.15-20.63 113.44-19.5 112.36-17.31 111.29-15.13 111.29-11.93L111.29-11.93Q111.29-9.03 112.25-6.79 113.21-4.55 114.91-3.29 116.61-2.02 118.81-2.02L118.81-2.02Q121.84-2.02 123.49-3.53 125.14-5.03 125.14-7.75L125.14-7.75 128.16-7.75Q128.16-5.3 126.99-3.43 125.81-1.55 123.71-0.5 121.61 0.55 118.86 0.55ZM139.21 0L136.31 0 136.31-34 139.21-34 139.21 0ZM138.71-9.85L138.71-13.03 151.81-23.73 155.98-23.73 138.71-9.85ZM156.51 0L152.91 0 141.31-14.93 144.43-15.3 156.51 0ZM171.71 0.55L171.71 0.55Q168.6 0.55 166.24-1.04 163.88-2.63 162.53-5.41 161.18-8.2 161.18-11.78L161.18-11.78Q161.18-15.68 162.52-18.48 163.85-21.28 166.22-22.78 168.58-24.28 171.71-24.28L171.71-24.28Q174.33-24.28 176.17-23.21 178-22.15 179.13-20.33 180.25-18.5 180.72-16.2 181.18-13.9 181.08-11.45L181.08-11.45 163.56-11.45 163.56-13.45 179.31-13.45 178.16-12.7Q178.23-14.33 177.97-15.94 177.71-17.55 176.99-18.9 176.28-20.25 175-21.08 173.73-21.9 171.73-21.9L171.73-21.9Q169.18-21.9 167.48-20.59 165.78-19.28 164.94-17.19 164.1-15.1 164.1-12.73L164.1-12.73 164.1-11.5Q164.1-8.78 164.94-6.6 165.78-4.42 167.47-3.15 169.16-1.88 171.71-1.88L171.71-1.88Q174.33-1.88 175.99-3.16 177.66-4.45 177.98-6.95L177.98-6.95 181.08-6.95Q180.71-4.58 179.42-2.9 178.13-1.23 176.16-0.34 174.18 0.55 171.71 0.55ZM195.95 0.55L195.95 0.55Q194.1 0.55 192.66-0.18 191.23-0.9 190.41-2.33 189.6-3.75 189.6-5.85L189.6-5.85 189.6-30.48 192.43-30.48 192.43-5.9Q192.43-1.85 196.18-1.85L196.18-1.85Q197.28-1.85 198.28-2.1 199.28-2.35 200.53-2.8L200.53-2.8 200.93-0.68Q199.7-0.13 198.48 0.21 197.25 0.55 195.95 0.55ZM200.45-21.63L185.53-21.63 185.53-23.73 200.45-23.73 200.45-21.63Z" opacity="1" transform="matrix(1,0,0,1,0,0)" fill="#ffffff" class="undefined-text-1" data-fill-palette-color="secondary" id="text-1"></path></svg></g></svg></g></svg></g></svg></g></svg></g></svg></g></svg></g><g><path d="M163.636 0c32.984 0 62.951 12.92 85.116 33.976l-7.524 0c-20.793-18.017-47.919-28.919-77.592-28.919-29.672 0-56.798 10.902-77.591 28.919l-7.524 0c22.164-21.056 52.131-33.976 85.115-33.976zM163.636 247.2c-32.984 0-62.951-12.92-85.115-33.976h7.524c20.793 18.017 47.919 28.919 77.591 28.919 29.672 0 56.798-10.902 77.592-28.919l7.524 0c-22.164 21.056-52.131 33.976-85.116 33.976z" fill="#77d4fc" stroke="transparent" data-fill-palette-color="tertiary"></path></g></svg></g><defs></defs></svg><rect width="395.52" height="247.2" fill="none" stroke="none" visibility="hidden"></rect></g></svg></g></svg>